# xmcd
#
# Track frame offsets:
#	150
#	22627
#	45160
#	62089
#	83665
#	103722
#	125427
#	140465
#	158050
#	180742
#	198717
#	216392
#	243157
#	263775
#	280957
#	303362
#
# Disc length: 4250 seconds
#
# Revision: 0
# Processed by: cddbd v1.5.2PL0 Copyright (c) Steve Scherf et al.
# Submitted via: EasyCDDAExtractor 12.0.1.1
#
DISCID=d7109810
DTITLE=Various Artist - Da Bomb II
DYEAR=1997
DGENRE=R&B
TTITLE0=Nate Dogg (Feat. Snoop) - Never Leave Ne Alone (Radio Edit)
TTITLE1=Mary J Blige (Feat. Nas) - Love Is All We Need (Instant Flava Remix)
TTITLE2=Salt 'N' Pepa - Champagne (Johnny Douglas Radio Mix)
TTITLE3=New Edition - I'm Still In Love With You (Concrete Jungle Full Version
TTITLE3=)
TTITLE4=Snoop Doggy Dogg - Snoops Upside Ya Head (Radio Edit Remix)
TTITLE5=Makaveli - Toss It Up (Radio Edit)
TTITLE6=Crucial Conflict - Ride The Rodeo (Album Version)
TTITLE7=Tasha Holiday (Feat. Mase) - Just The Way You Like It (Bad Boy Edit)
TTITLE8=Rahsaan Patterson - Stop By (Full Crew Mix)
TTITLE9=Day Ta Day - Smile (Main Mix)
TTITLE10=Lost Boyz - Get Up (Remix)
TTITLE11=The Roots - What They Do (Album Version)
TTITLE12=Monifah - You Don't Have To Love Me (LP Version)
TTITLE13=Erykah Badu - On and On (Album Version)
TTITLE14=K-Ci and JoJo - How Could You (Master Mix)
TTITLE15=Intrigue - Hard To Say I'm Sorry (Album Version)
EXTD=
EXTT0=
EXTT1=
EXTT2=
EXTT3=
EXTT4=
EXTT5=
EXTT6=
EXTT7=
EXTT8=
EXTT9=
EXTT10=
EXTT11=
EXTT12=
EXTT13=
EXTT14=
EXTT15=
PLAYORDER=
